<svg width="323" height="323" viewBox="0 0 323 323" fill="none" xmlns="http://www.w3.org/2000/svg">
<g filter="url(#filter0_dd_132_9)">
<circle cx="161.5" cy="161.5" r="111.5" fill="white"/>
</g>
<circle cx="161.5" cy="161.5" r="103.5" stroke="#F16B21" stroke-width="2" stroke-linejoin="round" stroke-dasharray="16 16"/>
<path fill-rule="evenodd" clip-rule="evenodd" d="M210.846 163.609V163.654C210.846 164.341 210.502 164.927 209.998 165.32L169.358 205.959C168.54 206.777 167.216 206.777 166.395 205.959C165.577 205.14 165.577 203.814 166.395 202.996L206.554 162.837V148.634C206.554 147.449 207.517 146.488 208.7 146.488C209.886 146.488 210.846 147.449 210.846 148.634V163.596C210.846 163.601 210.846 163.603 210.846 163.609ZM152.5 209.942C152.432 210.045 152.387 210.161 152.297 210.251C151.874 210.672 151.316 210.867 150.762 210.854C150.209 210.867 149.651 210.672 149.228 210.251C149.138 210.161 149.095 210.045 149.024 209.942L113.058 173.974C112.955 173.905 112.841 173.86 112.749 173.77C112.326 173.347 112.135 172.791 112.146 172.238C112.133 171.684 112.326 171.126 112.749 170.703C112.841 170.613 112.955 170.57 113.058 170.5L161.974 121.583C162.367 121.081 162.951 120.736 163.637 120.736H163.682C163.687 120.736 163.691 120.736 163.695 120.736H172.341C172.626 117.513 173.942 114.684 175.924 112.832L175.959 112.871C176.377 112.427 176.952 112.152 177.585 112.152C178.855 112.152 179.885 113.251 179.885 114.605C179.885 115.41 179.499 116.088 178.939 116.534C177.911 117.482 177.18 118.978 176.935 120.736H187.181C187.186 120.736 187.19 120.736 187.199 120.736H187.241C187.928 120.736 188.516 121.079 188.904 121.583L201.415 134.093C201.917 134.486 202.262 135.072 202.262 135.759V135.804C202.262 135.808 202.262 135.812 202.262 135.816V159.303C202.262 159.307 202.262 159.311 202.262 159.318V159.363C202.262 160.049 201.919 160.635 201.415 161.026L152.5 209.942ZM197.971 136.576L186.424 125.029H177.383C177.761 125.982 178.293 126.793 178.939 127.39C179.027 127.461 179.137 127.504 179.212 127.587L179.25 127.549C181.484 129.636 182.952 132.93 182.952 136.677C182.952 136.767 182.93 136.846 182.926 136.934C185.495 138.417 187.244 141.162 187.244 144.342C187.244 149.082 183.4 152.925 178.66 152.925C173.92 152.925 170.077 149.082 170.077 144.342C170.077 139.735 173.714 136.005 178.274 135.797C178.081 133.892 177.328 132.261 176.238 131.252C176.15 131.181 176.04 131.139 175.961 131.055L175.926 131.093C174.33 129.602 173.152 127.478 172.594 125.029H164.455L117.246 172.238L150.762 205.753L197.971 158.545V136.576ZM176.235 142.104C176.768 141.612 177.203 140.951 177.559 140.209C175.725 140.698 174.366 142.355 174.366 144.34C174.366 146.709 176.289 148.631 178.658 148.631C181.029 148.631 182.95 146.709 182.95 144.34C182.95 143.325 182.585 142.406 181.995 141.67C180.675 144.986 179.212 145.767 179.212 145.767C178.798 146.211 178.222 146.483 177.585 146.483C176.315 146.483 175.289 145.385 175.289 144.031C175.289 143.23 175.673 142.552 176.235 142.104ZM136.355 168.558C137.175 167.74 138.501 167.74 139.319 168.558L154.444 183.684C155.262 184.501 155.262 185.827 154.444 186.647C153.627 187.465 152.299 187.465 151.481 186.647L136.355 171.521C135.538 170.703 135.538 169.377 136.355 168.558ZM144.938 159.974C145.758 159.157 147.084 159.157 147.902 159.974L163.028 175.1C163.843 175.918 163.843 177.244 163.028 178.064C162.21 178.881 160.882 178.881 160.064 178.064L144.938 162.938C144.121 162.12 144.121 160.794 144.938 159.974Z" fill="black"/>
<defs>
<filter id="filter0_dd_132_9" x="0" y="0" width="323" height="323" filterUnits="userSpaceOnUse" color-interpolation-filters="sRGB">
<feFlood flood-opacity="0" result="BackgroundImageFix"/>
<feColorMatrix in="SourceAlpha" type="matrix" values="0 0 0 0 0 0 0 0 0 0 0 0 0 0 0 0 0 0 127 0" result="hardAlpha"/>
<feOffset dx="10" dy="10"/>
<feGaussianBlur stdDeviation="20"/>
<feComposite in2="hardAlpha" operator="out"/>
<feColorMatrix type="matrix" values="0 0 0 0 0 0 0 0 0 0 0 0 0 0 0 0 0 0 0.05 0"/>
<feBlend mode="normal" in2="BackgroundImageFix" result="effect1_dropShadow_132_9"/>
<feColorMatrix in="SourceAlpha" type="matrix" values="0 0 0 0 0 0 0 0 0 0 0 0 0 0 0 0 0 0 127 0" result="hardAlpha"/>
<feOffset dx="-10" dy="-10"/>
<feGaussianBlur stdDeviation="20"/>
<feComposite in2="hardAlpha" operator="out"/>
<feColorMatrix type="matrix" values="0 0 0 0 0 0 0 0 0 0 0 0 0 0 0 0 0 0 0.05 0"/>
<feBlend mode="normal" in2="effect1_dropShadow_132_9" result="effect2_dropShadow_132_9"/>
<feBlend mode="normal" in="SourceGraphic" in2="effect2_dropShadow_132_9" result="shape"/>
</filter>
</defs>
</svg>
