<svg width="323" height="323" viewBox="0 0 323 323" fill="none" xmlns="http://www.w3.org/2000/svg">
<g filter="url(#filter0_dd_132_8)">
<circle cx="161.5" cy="161.5" r="111.5" fill="white"/>
</g>
<circle cx="161.5" cy="161.5" r="103.5" stroke="#F16B21" stroke-width="2" stroke-linejoin="round" stroke-dasharray="16 16"/>
<path d="M218.572 174.101C218.582 172.648 218.137 171.228 217.3 170.041C216.462 168.854 215.273 167.959 213.901 167.482L213.284 167.264L213.566 166.673C214.113 165.517 214.335 164.234 214.208 162.961C214.08 161.689 213.608 160.475 212.842 159.451C212.075 158.427 211.044 157.631 209.859 157.149C208.675 156.667 207.381 156.518 206.117 156.717V112.915C206.117 112.595 205.99 112.288 205.764 112.061C205.537 111.835 205.23 111.708 204.91 111.708H104.637C104.317 111.708 104.01 111.835 103.783 112.061C103.556 112.287 103.429 112.594 103.428 112.915V186.04C103.428 186.199 103.459 186.356 103.52 186.502C103.581 186.649 103.67 186.782 103.782 186.894C103.895 187.006 104.028 187.095 104.175 187.156C104.322 187.216 104.479 187.247 104.637 187.247H179.687C179.736 187.247 179.787 187.247 179.837 187.247C180.195 188.099 180.716 188.873 181.372 189.525C182.291 190.459 183.456 191.113 184.732 191.412C186.008 191.71 187.343 191.641 188.581 191.212V211.104C188.581 211.351 188.657 211.592 188.798 211.794C188.939 211.997 189.139 212.151 189.371 212.237C189.603 212.322 189.855 212.334 190.094 212.271C190.333 212.209 190.547 212.075 190.707 211.887L196.78 204.764L202.852 211.887C202.966 212.02 203.106 212.127 203.265 212.2C203.424 212.273 203.596 212.311 203.771 212.311C203.913 212.31 204.055 212.285 204.188 212.236C204.42 212.151 204.62 211.997 204.761 211.794C204.903 211.592 204.978 211.351 204.978 211.104V191.194C206.284 191.63 207.69 191.673 209.021 191.318C210.351 190.962 211.548 190.224 212.463 189.194C213.378 188.164 213.97 186.889 214.166 185.526C214.362 184.162 214.153 182.771 213.566 181.526L213.284 180.935L213.901 180.717C215.273 180.241 216.462 179.346 217.299 178.159C218.137 176.973 218.582 175.553 218.572 174.101ZM105.837 184.823V114.124H203.703V157.547L203.616 157.589L203.398 156.973C202.921 155.601 202.027 154.413 200.84 153.575C199.654 152.737 198.234 152.292 196.782 152.302C195.329 152.291 193.91 152.736 192.723 153.574C191.536 154.411 190.642 155.6 190.166 156.973L189.945 157.589L189.359 157.312C188.05 156.695 186.581 156.497 185.154 156.745C183.728 156.993 182.413 157.676 181.389 158.7C180.365 159.724 179.682 161.039 179.433 162.466C179.185 163.893 179.383 165.361 180.001 166.671L180.282 167.262L179.666 167.48C178.303 167.969 177.124 168.867 176.291 170.052C175.458 171.236 175.011 172.649 175.011 174.097C175.011 175.545 175.458 176.958 176.291 178.143C177.124 179.327 178.303 180.225 179.666 180.715L180.282 180.933L180.001 181.523C179.509 182.551 179.274 183.683 179.314 184.821L105.837 184.823ZM197.698 202.102C197.585 201.969 197.444 201.862 197.286 201.788C197.127 201.715 196.954 201.677 196.78 201.677C196.605 201.677 196.432 201.715 196.274 201.788C196.115 201.862 195.974 201.969 195.861 202.102L191 207.806V192.858C191.647 193.793 192.511 194.558 193.518 195.086C194.526 195.614 195.646 195.89 196.783 195.89C197.921 195.89 199.041 195.614 200.048 195.086C201.055 194.558 201.92 193.793 202.566 192.858V207.806L197.698 202.102ZM213.092 178.43L211.217 179.098C211.058 179.154 210.913 179.244 210.791 179.36C210.669 179.476 210.572 179.617 210.507 179.773C210.443 179.929 210.411 180.096 210.415 180.265C210.419 180.434 210.458 180.6 210.53 180.752L211.386 182.552C211.795 183.411 211.928 184.376 211.767 185.314C211.605 186.252 211.157 187.116 210.485 187.789C209.812 188.462 208.947 188.91 208.009 189.071C207.071 189.233 206.107 189.1 205.248 188.691L203.448 187.837C203.295 187.765 203.129 187.725 202.961 187.72C202.792 187.716 202.624 187.747 202.468 187.811C202.312 187.876 202.171 187.972 202.055 188.095C201.939 188.217 201.849 188.363 201.793 188.522L201.125 190.397C200.806 191.293 200.217 192.069 199.439 192.617C198.662 193.166 197.734 193.46 196.782 193.46C195.83 193.46 194.902 193.166 194.125 192.617C193.347 192.069 192.758 191.293 192.439 190.397L191.773 188.522C191.69 188.287 191.536 188.084 191.332 187.94C191.129 187.797 190.886 187.72 190.637 187.72C190.457 187.719 190.279 187.759 190.116 187.837L188.319 188.691C187.46 189.1 186.495 189.233 185.557 189.071C184.619 188.91 183.755 188.462 183.082 187.789C182.409 187.116 181.961 186.252 181.8 185.314C181.638 184.376 181.771 183.411 182.18 182.552L183.034 180.752C183.106 180.6 183.146 180.434 183.151 180.265C183.155 180.096 183.124 179.929 183.06 179.773C182.995 179.617 182.899 179.476 182.776 179.36C182.654 179.243 182.508 179.154 182.349 179.098L180.474 178.43C179.582 178.109 178.81 177.52 178.264 176.744C177.719 175.968 177.426 175.042 177.426 174.094C177.426 173.145 177.719 172.22 178.264 171.444C178.81 170.668 179.582 170.079 180.474 169.758L182.349 169.09C182.508 169.033 182.654 168.944 182.776 168.828C182.899 168.712 182.995 168.571 183.06 168.415C183.124 168.259 183.155 168.091 183.151 167.922C183.146 167.753 183.106 167.587 183.034 167.435L182.18 165.635C181.771 164.776 181.638 163.811 181.8 162.874C181.961 161.936 182.409 161.071 183.082 160.398C183.755 159.725 184.619 159.277 185.557 159.116C186.495 158.955 187.46 159.088 188.319 159.497L190.116 160.35C190.269 160.423 190.435 160.463 190.604 160.467C190.773 160.472 190.941 160.441 191.097 160.376C191.253 160.312 191.394 160.215 191.511 160.093C191.627 159.97 191.717 159.825 191.773 159.666L192.439 157.791C192.758 156.894 193.347 156.119 194.125 155.57C194.902 155.022 195.83 154.727 196.782 154.727C197.734 154.727 198.662 155.022 199.439 155.57C200.217 156.119 200.806 156.894 201.125 157.791L201.793 159.666C201.848 159.825 201.937 159.971 202.053 160.095C202.168 160.218 202.309 160.315 202.464 160.381C202.62 160.446 202.788 160.478 202.957 160.474C203.126 160.471 203.292 160.432 203.445 160.359L205.245 159.506C206.104 159.098 207.067 158.965 208.004 159.126C208.941 159.287 209.805 159.734 210.478 160.405C211.151 161.076 211.6 161.939 211.763 162.875C211.927 163.812 211.796 164.776 211.391 165.635L210.535 167.435C210.463 167.588 210.424 167.754 210.42 167.922C210.416 168.091 210.447 168.259 210.512 168.415C210.577 168.57 210.673 168.711 210.795 168.827C210.918 168.944 211.063 169.033 211.222 169.09L213.097 169.758C213.99 170.079 214.761 170.668 215.307 171.444C215.853 172.22 216.145 173.145 216.145 174.094C216.145 175.042 215.853 175.968 215.307 176.744C214.761 177.52 213.99 178.109 213.097 178.43H213.092Z" fill="black" stroke="black"/>
<path d="M196.78 161.25C194.238 161.25 191.753 162.004 189.64 163.416C187.527 164.828 185.88 166.835 184.907 169.183C183.934 171.531 183.68 174.115 184.176 176.608C184.672 179.101 185.896 181.39 187.693 183.188C189.49 184.985 191.78 186.209 194.273 186.705C196.765 187.2 199.349 186.946 201.697 185.973C204.046 185.001 206.053 183.354 207.465 181.24C208.877 179.127 209.63 176.642 209.63 174.101C209.627 170.693 208.272 167.427 205.863 165.017C203.454 162.608 200.187 161.253 196.78 161.25ZM196.78 184.535C194.715 184.535 192.697 183.923 190.981 182.776C189.265 181.629 187.927 179.999 187.137 178.092C186.347 176.185 186.141 174.086 186.544 172.061C186.947 170.037 187.941 168.177 189.401 166.718C190.86 165.258 192.72 164.264 194.745 163.862C196.77 163.46 198.868 163.667 200.775 164.457C202.682 165.247 204.312 166.585 205.459 168.302C206.605 170.018 207.217 172.036 207.216 174.101C207.213 176.868 206.113 179.52 204.156 181.476C202.199 183.433 199.547 184.533 196.78 184.535Z" fill="black"/>
<path d="M142.827 126.07C142.827 125.912 142.796 125.755 142.735 125.608C142.675 125.461 142.586 125.328 142.474 125.216C142.362 125.104 142.228 125.015 142.082 124.955C141.935 124.894 141.778 124.863 141.62 124.863H115.655C115.335 124.863 115.028 124.99 114.802 125.217C114.576 125.443 114.448 125.75 114.448 126.07C114.448 126.39 114.576 126.697 114.802 126.924C115.028 127.15 115.335 127.277 115.655 127.277H141.62C141.778 127.278 141.935 127.247 142.082 127.186C142.228 127.126 142.362 127.037 142.474 126.925C142.586 126.812 142.675 126.679 142.735 126.533C142.796 126.386 142.827 126.229 142.827 126.07Z" fill="black" stroke="black"/>
<path d="M126.662 140.59C126.661 140.748 126.692 140.906 126.753 141.052C126.814 141.199 126.902 141.332 127.015 141.444C127.127 141.556 127.26 141.645 127.406 141.706C127.553 141.766 127.71 141.797 127.869 141.797H181.679C181.999 141.797 182.306 141.67 182.532 141.443C182.759 141.217 182.886 140.91 182.886 140.59C182.886 140.27 182.759 139.963 182.532 139.736C182.306 139.51 181.999 139.383 181.679 139.383H127.869C127.71 139.383 127.553 139.414 127.406 139.474C127.26 139.535 127.127 139.624 127.015 139.736C126.902 139.848 126.814 139.981 126.753 140.128C126.692 140.274 126.661 140.431 126.662 140.59Z" fill="black" stroke="black"/>
<path d="M175.37 151.523C175.37 151.365 175.339 151.208 175.278 151.061C175.218 150.915 175.129 150.781 175.017 150.669C174.905 150.557 174.771 150.468 174.625 150.408C174.478 150.347 174.321 150.316 174.163 150.316H127.869C127.549 150.316 127.242 150.444 127.015 150.67C126.789 150.896 126.662 151.203 126.662 151.523C126.662 151.844 126.789 152.151 127.015 152.377C127.242 152.603 127.549 152.73 127.869 152.73H174.163C174.321 152.731 174.478 152.7 174.625 152.639C174.771 152.579 174.905 152.49 175.017 152.378C175.129 152.265 175.218 152.132 175.278 151.986C175.339 151.839 175.37 151.682 175.37 151.523Z" fill="black" stroke="black"/>
<path d="M166.646 161.248H127.869C127.558 161.261 127.264 161.395 127.048 161.62C126.833 161.845 126.713 162.144 126.713 162.456C126.713 162.767 126.833 163.067 127.048 163.292C127.264 163.517 127.558 163.65 127.869 163.664H166.646C166.957 163.65 167.251 163.517 167.467 163.292C167.682 163.067 167.802 162.767 167.802 162.456C167.802 162.144 167.682 161.845 167.467 161.62C167.251 161.395 166.957 161.261 166.646 161.248Z" fill="black" stroke="black"/>
<defs>
<filter id="filter0_dd_132_8" x="0" y="0" width="323" height="323" filterUnits="userSpaceOnUse" color-interpolation-filters="sRGB">
<feFlood flood-opacity="0" result="BackgroundImageFix"/>
<feColorMatrix in="SourceAlpha" type="matrix" values="0 0 0 0 0 0 0 0 0 0 0 0 0 0 0 0 0 0 127 0" result="hardAlpha"/>
<feOffset dx="10" dy="10"/>
<feGaussianBlur stdDeviation="20"/>
<feComposite in2="hardAlpha" operator="out"/>
<feColorMatrix type="matrix" values="0 0 0 0 0 0 0 0 0 0 0 0 0 0 0 0 0 0 0.05 0"/>
<feBlend mode="normal" in2="BackgroundImageFix" result="effect1_dropShadow_132_8"/>
<feColorMatrix in="SourceAlpha" type="matrix" values="0 0 0 0 0 0 0 0 0 0 0 0 0 0 0 0 0 0 127 0" result="hardAlpha"/>
<feOffset dx="-10" dy="-10"/>
<feGaussianBlur stdDeviation="20"/>
<feComposite in2="hardAlpha" operator="out"/>
<feColorMatrix type="matrix" values="0 0 0 0 0 0 0 0 0 0 0 0 0 0 0 0 0 0 0.05 0"/>
<feBlend mode="normal" in2="effect1_dropShadow_132_8" result="effect2_dropShadow_132_8"/>
<feBlend mode="normal" in="SourceGraphic" in2="effect2_dropShadow_132_8" result="shape"/>
</filter>
</defs>
</svg>
