<svg width="323" height="323" viewBox="0 0 323 323" fill="none" xmlns="http://www.w3.org/2000/svg">
<g filter="url(#filter0_dd_132_5)">
<circle cx="161.5" cy="161.5" r="111.5" fill="white"/>
</g>
<circle cx="161.5" cy="161.5" r="103.5" stroke="#F16B21" stroke-width="2" stroke-linejoin="round" stroke-dasharray="16 16"/>
<path d="M187.203 128.833L201.992 106.893H217.347C217.735 106.893 218.108 106.738 218.382 106.464C218.657 106.189 218.812 105.816 218.812 105.428C218.812 105.039 218.657 104.667 218.382 104.392C218.108 104.117 217.735 103.963 217.347 103.963H201.21C200.969 103.962 200.732 104.021 200.52 104.134C200.307 104.247 200.126 104.411 199.991 104.61L184.757 127.222C177.622 122.809 169.398 120.476 161.009 120.483C135.998 120.483 115.651 140.83 115.651 165.841C115.649 172.171 116.974 178.432 119.542 184.218C122.11 190.005 125.864 195.188 130.561 199.433L119.958 217.107H104.653C104.265 217.107 103.892 217.262 103.618 217.536C103.343 217.811 103.188 218.184 103.188 218.572C103.188 218.961 103.343 219.333 103.618 219.608C103.892 219.883 104.265 220.037 104.653 220.037H120.79C121.044 220.038 121.294 219.973 121.516 219.848C121.737 219.723 121.922 219.543 122.053 219.325L132.828 201.349C140.831 207.73 150.765 211.202 161 211.195C186.011 211.195 206.357 190.849 206.357 165.838C206.357 158.588 204.617 151.443 201.284 145.004C197.951 138.565 193.122 133.02 187.203 128.833ZM161 208.254C137.612 208.254 118.584 189.226 118.584 165.838C118.584 142.45 137.612 123.422 161 123.422C184.388 123.422 203.416 142.465 203.416 165.838C203.416 189.211 184.388 208.254 161 208.254Z" fill="black"/>
<path d="M161 131.531C153.61 131.541 146.42 133.933 140.497 138.353C134.574 142.772 130.234 148.983 128.12 156.064L128.094 156.149C127.17 159.289 126.701 162.545 126.702 165.817C126.702 165.979 126.702 166.14 126.702 166.298C126.702 166.345 126.702 166.392 126.702 166.438C126.699 166.49 126.699 166.542 126.702 166.594C126.883 174.312 129.658 181.744 134.579 187.692C139.5 193.641 146.281 197.759 153.828 199.383H153.863C158.796 200.43 163.9 200.376 168.81 199.226C173.72 198.076 178.316 195.857 182.27 192.728C186.225 189.598 189.441 185.635 191.689 181.121C193.937 176.607 195.162 171.653 195.277 166.611C195.28 166.561 195.28 166.51 195.277 166.459C195.277 166.412 195.277 166.365 195.277 166.318C195.277 166.16 195.277 165.999 195.277 165.838C195.27 156.747 191.657 148.03 185.231 141.598C178.805 135.167 170.091 131.547 161 131.531ZM180.922 167.273L179.958 158.001H191.369C191.959 160.288 192.288 162.636 192.348 164.997C189.978 165.1 185.226 165.557 180.922 167.273ZM161 134.461C167.425 134.468 173.694 136.446 178.96 140.128C184.226 143.81 188.236 149.018 190.449 155.051H131.562C133.778 149.024 137.788 143.822 143.052 140.144C148.315 136.466 154.579 134.49 161 134.481V134.461ZM129.652 165.009C129.714 162.647 130.042 160.3 130.631 158.013H142.057L141.078 167.294C136.774 165.571 132.02 165.12 129.652 165.009ZM129.717 167.991C132.274 168.144 137.53 168.674 141.573 170.739C141.631 170.775 141.692 170.806 141.755 170.833C142.976 171.45 144.078 172.28 145.007 173.285C149.63 178.468 151.745 191.019 152.41 195.999C146.212 194.222 140.71 190.581 136.651 185.571C132.592 180.561 130.172 174.423 129.72 167.991H129.717ZM155.472 196.702C154.968 192.51 152.835 177.624 147.204 171.322C146.243 170.271 145.127 169.373 143.894 168.659L145.004 158.007H176.993L178.104 168.656C176.87 169.371 175.754 170.27 174.793 171.322C169.171 177.624 167.026 192.513 166.522 196.702C162.868 197.351 159.129 197.351 155.475 196.702H155.472ZM169.581 195.996C170.255 191.016 172.361 178.465 176.987 173.279C177.916 172.277 179.015 171.448 180.233 170.83C180.301 170.801 180.367 170.767 180.43 170.728C184.476 168.662 189.723 168.126 192.277 167.979C191.828 174.415 189.409 180.556 185.349 185.569C181.289 190.582 175.785 194.225 169.584 196.002L169.581 195.996Z" fill="black"/>
<path d="M166.83 165.838C166.83 164.685 166.488 163.558 165.848 162.599C165.207 161.64 164.296 160.893 163.231 160.452C162.166 160.01 160.994 159.895 159.863 160.12C158.732 160.345 157.693 160.9 156.878 161.715C156.062 162.531 155.507 163.57 155.282 164.701C155.057 165.831 155.172 167.004 155.614 168.069C156.055 169.134 156.802 170.045 157.761 170.685C158.72 171.326 159.847 171.668 161 171.668C162.546 171.666 164.028 171.052 165.121 169.959C166.214 168.866 166.829 167.384 166.83 165.838ZM161 168.738C160.429 168.738 159.87 168.569 159.395 168.251C158.92 167.934 158.55 167.483 158.331 166.955C158.113 166.427 158.055 165.846 158.167 165.286C158.278 164.726 158.553 164.211 158.957 163.807C159.361 163.403 159.876 163.128 160.436 163.016C160.997 162.905 161.578 162.962 162.105 163.181C162.633 163.399 163.084 163.77 163.402 164.245C163.719 164.72 163.889 165.278 163.889 165.85C163.888 166.616 163.583 167.35 163.042 167.891C162.5 168.433 161.766 168.738 161 168.738Z" fill="black"/>
<path d="M217.347 110.93H210.201C209.813 110.93 209.44 111.084 209.165 111.359C208.891 111.633 208.736 112.006 208.736 112.395C208.736 112.783 208.891 113.156 209.165 113.43C209.44 113.705 209.813 113.859 210.201 113.859H217.347C217.735 113.859 218.108 113.705 218.382 113.43C218.657 113.156 218.812 112.783 218.812 112.395C218.812 112.006 218.657 111.633 218.382 111.359C218.108 111.084 217.735 110.93 217.347 110.93Z" fill="black"/>
<path d="M104.653 213.07H111.799C112.187 213.07 112.56 212.916 112.835 212.641C113.109 212.367 113.264 211.994 113.264 211.605C113.264 211.217 113.109 210.844 112.835 210.57C112.56 210.295 112.187 210.141 111.799 210.141H104.653C104.265 210.141 103.892 210.295 103.618 210.57C103.343 210.844 103.188 211.217 103.188 211.605C103.188 211.994 103.343 212.367 103.618 212.641C103.892 212.916 104.265 213.07 104.653 213.07Z" fill="black"/>
<defs>
<filter id="filter0_dd_132_5" x="0" y="0" width="323" height="323" filterUnits="userSpaceOnUse" color-interpolation-filters="sRGB">
<feFlood flood-opacity="0" result="BackgroundImageFix"/>
<feColorMatrix in="SourceAlpha" type="matrix" values="0 0 0 0 0 0 0 0 0 0 0 0 0 0 0 0 0 0 127 0" result="hardAlpha"/>
<feOffset dx="10" dy="10"/>
<feGaussianBlur stdDeviation="20"/>
<feComposite in2="hardAlpha" operator="out"/>
<feColorMatrix type="matrix" values="0 0 0 0 0 0 0 0 0 0 0 0 0 0 0 0 0 0 0.05 0"/>
<feBlend mode="normal" in2="BackgroundImageFix" result="effect1_dropShadow_132_5"/>
<feColorMatrix in="SourceAlpha" type="matrix" values="0 0 0 0 0 0 0 0 0 0 0 0 0 0 0 0 0 0 127 0" result="hardAlpha"/>
<feOffset dx="-10" dy="-10"/>
<feGaussianBlur stdDeviation="20"/>
<feComposite in2="hardAlpha" operator="out"/>
<feColorMatrix type="matrix" values="0 0 0 0 0 0 0 0 0 0 0 0 0 0 0 0 0 0 0.05 0"/>
<feBlend mode="normal" in2="effect1_dropShadow_132_5" result="effect2_dropShadow_132_5"/>
<feBlend mode="normal" in="SourceGraphic" in2="effect2_dropShadow_132_5" result="shape"/>
</filter>
</defs>
</svg>
