<svg width="421" height="182" viewBox="0 0 421 182" fill="none" xmlns="http://www.w3.org/2000/svg">
<path d="M19 86.4637V87.408C19 88.5242 19.8306 89.4301 20.8538 89.4301H29.6934C31.0987 94.95 35.7392 99 41.2472 99C46.7553 99 51.3955 94.95 52.801 89.4301H117.941C119.346 94.95 123.986 99 129.494 99C135.002 99 139.643 94.95 141.048 89.4301H149.146C150.169 89.4301 151 88.5242 151 87.408V86.4637C151 85.3476 150.169 84.4418 149.146 84.4418H149.129V72.5506C149.129 71.9885 149.057 71.4325 148.916 70.8985L147.75 66.5108C147.272 64.7153 146.056 63.3606 144.55 62.9461L138.08 61.1669C136.191 60.6471 134.398 59.7008 132.792 58.3765L122.848 50.1794C120.668 48.3819 118.15 47.29 115.53 47.0009C109.433 46.3336 103.319 46 97.2044 46C89.987 46 82.7697 46.4651 75.5838 47.3953L70.7023 48.0262C68.5388 48.3074 66.4419 49.1121 64.5343 50.3939L52.2131 58.6862C50.3519 59.9377 48.3088 60.7363 46.1989 61.0337L30.5332 63.2437C26.4231 63.8241 23.1249 67.6576 22.4445 72.6459L22.4352 72.7146L21.2356 74.4374C20.5552 75.414 20.1826 76.6534 20.1826 77.9355V82.8873C20.1826 83.4536 20.253 83.9973 20.3846 84.509C19.5896 84.7371 19 85.5235 19 86.4637ZM142.116 69.3781H144.691C144.926 69.3781 145.147 69.5055 145.279 69.718L145.594 70.2234C146.278 71.3193 146.643 72.6153 146.643 73.9398V74.6677C146.643 75.0964 146.324 75.4442 145.931 75.4442H143.703C143.408 75.4442 143.143 75.246 143.039 74.9468L141.452 70.4317C141.272 69.924 141.617 69.3781 142.116 69.3781ZM84.5829 73.5738H79.9482C79.0787 73.5738 78.3723 72.8034 78.3723 71.8551C78.3723 70.9068 79.0787 70.1364 79.9482 70.1364H84.5829C85.4524 70.1364 86.1587 70.9068 86.1587 71.8551C86.1587 72.8034 85.4524 73.5738 84.5829 73.5738ZM119.313 73.5738H114.678C113.808 73.5738 113.102 72.8034 113.102 71.8551C113.102 70.9068 113.808 70.1364 114.678 70.1364H119.313C120.184 70.1364 120.888 70.9068 120.888 71.8551C120.888 72.8034 120.184 73.5738 119.313 73.5738ZM122.331 84.1182C122.516 83.2407 122.833 82.4197 123.26 81.6777C123.855 81.9465 124.556 81.8516 125.076 81.3884C125.123 81.346 125.169 81.3014 125.212 81.255C125.256 81.2065 125.297 81.1558 125.334 81.1052C125.759 80.5392 125.847 79.7748 125.601 79.1258C126.281 78.6607 127.034 78.315 127.839 78.1128C128.108 78.8203 128.747 79.3197 129.494 79.3197C130.241 79.3197 130.881 78.8203 131.15 78.1128C131.954 78.315 132.707 78.6607 133.388 79.1258C133.121 79.8335 133.248 80.6786 133.777 81.255C134.305 81.8292 135.08 81.9707 135.729 81.6775C136.156 82.4195 136.472 83.2405 136.658 84.118C136.009 84.4112 135.551 85.1088 135.551 85.9237C135.551 86.7407 136.009 87.4382 136.66 87.7314C136.533 88.3259 136.348 88.894 136.109 89.4299C135.994 89.6848 135.864 89.9314 135.727 90.1699C135.078 89.8787 134.303 90.0202 133.777 90.5946C133.248 91.1708 133.119 92.0161 133.387 92.7238C132.707 93.1889 131.954 93.5346 131.15 93.7368C130.881 93.0293 130.241 92.5299 129.494 92.5299C128.747 92.5299 128.107 93.0293 127.838 93.7368C127.034 93.5346 126.281 93.1889 125.601 92.7238C125.87 92.0161 125.74 91.171 125.211 90.5946C124.685 90.0202 123.912 89.8789 123.263 90.1699C123.126 89.9314 122.996 89.6846 122.881 89.4299C122.642 88.894 122.455 88.3259 122.329 87.7314C122.979 87.4382 123.437 86.7407 123.437 85.9237C123.438 85.109 122.98 84.4114 122.331 84.1182ZM91.9931 63.2716L94.064 52.9171C94.255 51.9607 95.0466 51.2915 95.9421 51.3258L113.54 52.0296C114.112 52.0516 114.643 52.3632 114.978 52.8705L121.25 62.4063C122.268 63.9552 121.254 66.1085 119.507 66.1085H94.0898C92.7215 66.1085 91.7019 64.7295 91.9931 63.2716ZM54.6474 62.9867L66.9685 54.6965C68.307 53.7949 69.7476 53.2407 71.2494 53.0466L76.1289 52.4135C80.3893 51.8617 84.6941 51.4815 88.9971 51.265C89.6218 51.2347 90.0891 51.8798 89.924 52.5348L87.4528 62.2869C86.88 64.5453 84.9945 66.1083 82.8457 66.1083H58.7891C57.1743 66.1083 55.6651 65.2248 54.7735 63.7546L54.4045 63.1461C54.4861 63.0936 54.5676 63.0412 54.6474 62.9867ZM34.0836 84.1182C34.13 83.8997 34.1838 83.6835 34.2467 83.4712C34.3728 83.0465 34.5285 82.6382 34.714 82.2481C34.8067 82.0539 34.9067 81.8639 35.0124 81.6779C35.6075 81.9467 36.3083 81.8518 36.8292 81.3886C36.8756 81.3462 36.9219 81.3016 36.9647 81.2552C37.0091 81.2067 37.05 81.156 37.087 81.1054C37.5111 80.54 37.6002 79.7767 37.3547 79.1281C37.3692 79.1183 37.3829 79.1075 37.3976 79.0977C37.4375 79.0709 37.4777 79.0453 37.518 79.0192C37.6359 78.9435 37.7548 78.8688 37.8769 78.8003C38.011 78.7246 38.1475 78.6532 38.2862 78.5868C38.2866 78.5866 38.2869 78.5864 38.2873 78.5862C38.2915 78.5841 38.2957 78.5824 38.2999 78.5804C38.4342 78.5161 38.5707 78.4557 38.709 78.4002C38.7099 78.3997 38.7109 78.3993 38.7119 78.3991C38.7136 78.3985 38.7153 78.3979 38.717 78.3972C38.8576 78.3408 39.0002 78.2888 39.1446 78.242C39.1455 78.2416 39.1465 78.2414 39.1474 78.2412C39.2932 78.1937 39.4409 78.1511 39.5901 78.1134C39.5905 78.1134 39.5911 78.1132 39.5914 78.1132C39.8603 78.8207 40.4998 79.3201 41.247 79.3201C41.9942 79.3201 42.6338 78.8207 42.9026 78.1132H42.9028C42.9034 78.1132 42.9037 78.1134 42.9041 78.1134C43.0535 78.1513 43.201 78.1937 43.3468 78.2412C43.3477 78.2414 43.3487 78.2418 43.3497 78.242C43.4941 78.2888 43.6366 78.3408 43.7772 78.3972C43.779 78.3979 43.7807 78.3985 43.7824 78.3991C43.7833 78.3995 43.7843 78.4 43.7853 78.4002C43.9236 78.4559 44.0598 78.5163 44.1943 78.5804C44.1985 78.5824 44.2027 78.5841 44.2069 78.5862C44.2073 78.5862 44.2077 78.5866 44.2081 78.5868C44.3468 78.6534 44.4832 78.7248 44.6173 78.8003C44.74 78.8692 44.8593 78.9441 44.9778 79.0203C45.0174 79.0459 45.0573 79.0713 45.0966 79.0977C45.1001 79.1 45.1033 79.1025 45.1067 79.1048C45.1178 79.1123 45.1285 79.1206 45.1396 79.1281C44.8738 79.8354 45.0018 80.6794 45.5296 81.2552C46.0579 81.8294 46.8329 81.9709 47.4816 81.6777C47.5873 81.8637 47.6875 82.0537 47.7802 82.2479C47.9657 82.638 48.1214 83.0465 48.2473 83.471C48.3103 83.6833 48.3641 83.8995 48.4105 84.118C47.7615 84.4112 47.3036 85.1088 47.3036 85.9237C47.3036 86.7407 47.7615 87.4382 48.4124 87.7314C48.3809 87.885 48.3439 88.0367 48.303 88.1863C48.266 88.3259 48.2233 88.4654 48.1788 88.6029C48.1565 88.6757 48.1306 88.7484 48.1065 88.8214C48.0565 88.9587 48.0044 89.0942 47.9489 89.2278C47.9211 89.2965 47.8915 89.3633 47.8617 89.4301C47.7469 89.685 47.6169 89.9316 47.4797 90.1701C46.8308 89.879 46.056 90.0204 45.5294 90.5948C45.001 91.171 44.8713 92.0163 45.1401 92.724C44.4597 93.1891 43.707 93.5348 42.9024 93.7371C42.6336 93.0295 41.994 92.5301 41.2468 92.5301C40.4997 92.5301 39.8601 93.0295 39.5913 93.7371C38.7866 93.5348 38.0339 93.1891 37.3535 92.724C37.6224 92.0163 37.4926 91.1712 36.9643 90.5948C36.4377 90.0204 35.6648 89.8792 35.0158 90.1701C34.8787 89.9316 34.7489 89.6848 34.6341 89.4301C34.6043 89.3633 34.5747 89.2965 34.5469 89.2278C34.4911 89.0942 34.4394 88.9587 34.3893 88.8214C34.2631 88.4695 34.1612 88.1055 34.0815 87.7314C34.7323 87.4382 35.1902 86.7407 35.1902 85.9237C35.1904 85.109 34.7325 84.4114 34.0836 84.1182ZM26.2712 71.4606C26.7959 69.9927 27.6284 68.2255 28.7927 67.3498C28.9781 67.2104 29.2006 67.1417 29.4267 67.1417H32.0018C32.8472 67.1417 33.3996 68.1063 33.0288 68.9353L32.0073 71.22C31.8701 71.5294 31.6217 71.7621 31.3214 71.863L27.6765 73.1106C26.7587 73.4239 25.9207 72.4392 26.2712 71.4606Z" fill="#F16B21"/>
<path d="M32.84 102.94L27.35 124H21.14L17.78 110.14L14.3 124H8.09L2.75 102.94H8.24L11.27 118.27L15.02 102.94H20.66L24.26 118.27L27.32 102.94H32.84ZM55.6927 115.36C55.6927 115.84 55.6627 116.34 55.6027 116.86H43.9927C44.0727 117.9 44.4027 118.7 44.9827 119.26C45.5827 119.8 46.3127 120.07 47.1727 120.07C48.4527 120.07 49.3427 119.53 49.8427 118.45H55.3027C55.0227 119.55 54.5127 120.54 53.7727 121.42C53.0527 122.3 52.1427 122.99 51.0427 123.49C49.9427 123.99 48.7127 124.24 47.3527 124.24C45.7127 124.24 44.2527 123.89 42.9727 123.19C41.6927 122.49 40.6927 121.49 39.9727 120.19C39.2527 118.89 38.8927 117.37 38.8927 115.63C38.8927 113.89 39.2427 112.37 39.9427 111.07C40.6627 109.77 41.6627 108.77 42.9427 108.07C44.2227 107.37 45.6927 107.02 47.3527 107.02C48.9727 107.02 50.4127 107.36 51.6727 108.04C52.9327 108.72 53.9127 109.69 54.6127 110.95C55.3327 112.21 55.6927 113.68 55.6927 115.36ZM50.4427 114.01C50.4427 113.13 50.1427 112.43 49.5427 111.91C48.9427 111.39 48.1927 111.13 47.2927 111.13C46.4327 111.13 45.7027 111.38 45.1027 111.88C44.5227 112.38 44.1627 113.09 44.0227 114.01H50.4427ZM86.7491 102.94V124H81.6191V111.37L76.9091 124H72.7691L68.0291 111.34V124H62.8991V102.94H68.9591L74.8691 117.52L80.7191 102.94H86.7491ZM93.9181 115.6C93.9181 113.88 94.2381 112.37 94.8781 111.07C95.5381 109.77 96.4281 108.77 97.5481 108.07C98.6681 107.37 99.9181 107.02 101.298 107.02C102.478 107.02 103.508 107.26 104.388 107.74C105.288 108.22 105.978 108.85 106.458 109.63V107.26H111.588V124H106.458V121.63C105.958 122.41 105.258 123.04 104.358 123.52C103.478 124 102.448 124.24 101.268 124.24C99.9081 124.24 98.6681 123.89 97.5481 123.19C96.4281 122.47 95.5381 121.46 94.8781 120.16C94.2381 118.84 93.9181 117.32 93.9181 115.6ZM106.458 115.63C106.458 114.35 106.098 113.34 105.378 112.6C104.678 111.86 103.818 111.49 102.798 111.49C101.778 111.49 100.908 111.86 100.188 112.6C99.4881 113.32 99.1381 114.32 99.1381 115.6C99.1381 116.88 99.4881 117.9 100.188 118.66C100.908 119.4 101.778 119.77 102.798 119.77C103.818 119.77 104.678 119.4 105.378 118.66C106.098 117.92 106.458 116.91 106.458 115.63ZM130.029 124L124.929 116.98V124H119.799V101.8H124.929V114.07L129.999 107.26H136.329L129.369 115.66L136.389 124H130.029ZM158.624 115.36C158.624 115.84 158.594 116.34 158.534 116.86H146.924C147.004 117.9 147.334 118.7 147.914 119.26C148.514 119.8 149.244 120.07 150.104 120.07C151.384 120.07 152.274 119.53 152.774 118.45H158.234C157.954 119.55 157.444 120.54 156.704 121.42C155.984 122.3 155.074 122.99 153.974 123.49C152.874 123.99 151.644 124.24 150.284 124.24C148.644 124.24 147.184 123.89 145.904 123.19C144.624 122.49 143.624 121.49 142.904 120.19C142.184 118.89 141.824 117.37 141.824 115.63C141.824 113.89 142.174 112.37 142.874 111.07C143.594 109.77 144.594 108.77 145.874 108.07C147.154 107.37 148.624 107.02 150.284 107.02C151.904 107.02 153.344 107.36 154.604 108.04C155.864 108.72 156.844 109.69 157.544 110.95C158.264 112.21 158.624 113.68 158.624 115.36ZM153.374 114.01C153.374 113.13 153.074 112.43 152.474 111.91C151.874 111.39 151.124 111.13 150.224 111.13C149.364 111.13 148.634 111.38 148.034 111.88C147.454 112.38 147.094 113.09 146.954 114.01H153.374ZM178.581 113.2C179.801 113.46 180.781 114.07 181.521 115.03C182.261 115.97 182.631 117.05 182.631 118.27C182.631 120.03 182.011 121.43 180.771 122.47C179.551 123.49 177.841 124 175.641 124H165.831V102.94H175.311C177.451 102.94 179.121 103.43 180.321 104.41C181.541 105.39 182.151 106.72 182.151 108.4C182.151 109.64 181.821 110.67 181.161 111.49C180.521 112.31 179.661 112.88 178.581 113.2ZM170.961 111.46H174.321C175.161 111.46 175.801 111.28 176.241 110.92C176.701 110.54 176.931 109.99 176.931 109.27C176.931 108.55 176.701 108 176.241 107.62C175.801 107.24 175.161 107.05 174.321 107.05H170.961V111.46ZM174.741 119.86C175.601 119.86 176.261 119.67 176.721 119.29C177.201 118.89 177.441 118.32 177.441 117.58C177.441 116.84 177.191 116.26 176.691 115.84C176.211 115.42 175.541 115.21 174.681 115.21H170.961V119.86H174.741ZM205.886 115.36C205.886 115.84 205.856 116.34 205.796 116.86H194.186C194.266 117.9 194.596 118.7 195.176 119.26C195.776 119.8 196.506 120.07 197.366 120.07C198.646 120.07 199.536 119.53 200.036 118.45H205.496C205.216 119.55 204.706 120.54 203.966 121.42C203.246 122.3 202.336 122.99 201.236 123.49C200.136 123.99 198.906 124.24 197.546 124.24C195.906 124.24 194.446 123.89 193.166 123.19C191.886 122.49 190.886 121.49 190.166 120.19C189.446 118.89 189.086 117.37 189.086 115.63C189.086 113.89 189.436 112.37 190.136 111.07C190.856 109.77 191.856 108.77 193.136 108.07C194.416 107.37 195.886 107.02 197.546 107.02C199.166 107.02 200.606 107.36 201.866 108.04C203.126 108.72 204.106 109.69 204.806 110.95C205.526 112.21 205.886 113.68 205.886 115.36ZM200.636 114.01C200.636 113.13 200.336 112.43 199.736 111.91C199.136 111.39 198.386 111.13 197.486 111.13C196.626 111.13 195.896 111.38 195.296 111.88C194.716 112.38 194.356 113.09 194.216 114.01H200.636ZM222.422 119.65V124H219.812C217.952 124 216.502 123.55 215.462 122.65C214.422 121.73 213.902 120.24 213.902 118.18V111.52H211.862V107.26H213.902V103.18H219.032V107.26H222.392V111.52H219.032V118.24C219.032 118.74 219.152 119.1 219.392 119.32C219.632 119.54 220.032 119.65 220.592 119.65H222.422ZM239.11 119.65V124H236.5C234.64 124 233.19 123.55 232.15 122.65C231.11 121.73 230.59 120.24 230.59 118.18V111.52H228.55V107.26H230.59V103.18H235.72V107.26H239.08V111.52H235.72V118.24C235.72 118.74 235.84 119.1 236.08 119.32C236.32 119.54 236.72 119.65 237.28 119.65H239.11ZM262.247 115.36C262.247 115.84 262.217 116.34 262.157 116.86H250.547C250.627 117.9 250.957 118.7 251.537 119.26C252.137 119.8 252.867 120.07 253.727 120.07C255.007 120.07 255.897 119.53 256.397 118.45H261.857C261.577 119.55 261.067 120.54 260.327 121.42C259.607 122.3 258.697 122.99 257.597 123.49C256.497 123.99 255.267 124.24 253.907 124.24C252.267 124.24 250.807 123.89 249.527 123.19C248.247 122.49 247.247 121.49 246.527 120.19C245.807 118.89 245.447 117.37 245.447 115.63C245.447 113.89 245.797 112.37 246.497 111.07C247.217 109.77 248.217 108.77 249.497 108.07C250.777 107.37 252.247 107.02 253.907 107.02C255.527 107.02 256.967 107.36 258.227 108.04C259.487 108.72 260.467 109.69 261.167 110.95C261.887 112.21 262.247 113.68 262.247 115.36ZM256.997 114.01C256.997 113.13 256.697 112.43 256.097 111.91C255.497 111.39 254.747 111.13 253.847 111.13C252.987 111.13 252.257 111.38 251.657 111.88C251.077 112.38 250.717 113.09 250.577 114.01H256.997ZM274.584 110.05C275.184 109.13 275.934 108.41 276.834 107.89C277.734 107.35 278.734 107.08 279.834 107.08V112.51H278.424C277.144 112.51 276.184 112.79 275.544 113.35C274.904 113.89 274.584 114.85 274.584 116.23V124H269.454V107.26H274.584V110.05ZM294.676 102.94C296.896 102.94 298.836 103.38 300.496 104.26C302.156 105.14 303.436 106.38 304.336 107.98C305.256 109.56 305.716 111.39 305.716 113.47C305.716 115.53 305.256 117.36 304.336 118.96C303.436 120.56 302.146 121.8 300.466 122.68C298.806 123.56 296.876 124 294.676 124H286.786V102.94H294.676ZM294.346 119.56C296.286 119.56 297.796 119.03 298.876 117.97C299.956 116.91 300.496 115.41 300.496 113.47C300.496 111.53 299.956 110.02 298.876 108.94C297.796 107.86 296.286 107.32 294.346 107.32H291.916V119.56H294.346ZM318.213 110.05C318.813 109.13 319.563 108.41 320.463 107.89C321.363 107.35 322.363 107.08 323.463 107.08V112.51H322.053C320.773 112.51 319.813 112.79 319.173 113.35C318.533 113.89 318.213 114.85 318.213 116.23V124H313.083V107.26H318.213V110.05ZM332.995 105.52C332.095 105.52 331.355 105.26 330.775 104.74C330.215 104.2 329.935 103.54 329.935 102.76C329.935 101.96 330.215 101.3 330.775 100.78C331.355 100.24 332.095 99.97 332.995 99.97C333.875 99.97 334.595 100.24 335.155 100.78C335.735 101.3 336.025 101.96 336.025 102.76C336.025 103.54 335.735 104.2 335.155 104.74C334.595 105.26 333.875 105.52 332.995 105.52ZM335.545 107.26V124H330.415V107.26H335.545ZM351.292 119.2L354.922 107.26H360.382L354.442 124H348.112L342.172 107.26H347.662L351.292 119.2ZM382.822 115.36C382.822 115.84 382.792 116.34 382.732 116.86H371.122C371.202 117.9 371.532 118.7 372.112 119.26C372.712 119.8 373.442 120.07 374.302 120.07C375.582 120.07 376.472 119.53 376.972 118.45H382.432C382.152 119.55 381.642 120.54 380.902 121.42C380.182 122.3 379.272 122.99 378.172 123.49C377.072 123.99 375.842 124.24 374.482 124.24C372.842 124.24 371.382 123.89 370.102 123.19C368.822 122.49 367.822 121.49 367.102 120.19C366.382 118.89 366.022 117.37 366.022 115.63C366.022 113.89 366.372 112.37 367.072 111.07C367.792 109.77 368.792 108.77 370.072 108.07C371.352 107.37 372.822 107.02 374.482 107.02C376.102 107.02 377.542 107.36 378.802 108.04C380.062 108.72 381.042 109.69 381.742 110.95C382.462 112.21 382.822 113.68 382.822 115.36ZM377.572 114.01C377.572 113.13 377.272 112.43 376.672 111.91C376.072 111.39 375.322 111.13 374.422 111.13C373.562 111.13 372.832 111.38 372.232 111.88C371.652 112.38 371.292 113.09 371.152 114.01H377.572ZM394.258 110.05C394.858 109.13 395.608 108.41 396.508 107.89C397.408 107.35 398.408 107.08 399.508 107.08V112.51H398.098C396.818 112.51 395.858 112.79 395.218 113.35C394.578 113.89 394.258 114.85 394.258 116.23V124H389.128V107.26H394.258V110.05ZM413.27 124.24C411.81 124.24 410.51 123.99 409.37 123.49C408.23 122.99 407.33 122.31 406.67 121.45C406.01 120.57 405.64 119.59 405.56 118.51H410.63C410.69 119.09 410.96 119.56 411.44 119.92C411.92 120.28 412.51 120.46 413.21 120.46C413.85 120.46 414.34 120.34 414.68 120.1C415.04 119.84 415.22 119.51 415.22 119.11C415.22 118.63 414.97 118.28 414.47 118.06C413.97 117.82 413.16 117.56 412.04 117.28C410.84 117 409.84 116.71 409.04 116.41C408.24 116.09 407.55 115.6 406.97 114.94C406.39 114.26 406.1 113.35 406.1 112.21C406.1 111.25 406.36 110.38 406.88 109.6C407.42 108.8 408.2 108.17 409.22 107.71C410.26 107.25 411.49 107.02 412.91 107.02C415.01 107.02 416.66 107.54 417.86 108.58C419.08 109.62 419.78 111 419.96 112.72H415.22C415.14 112.14 414.88 111.68 414.44 111.34C414.02 111 413.46 110.83 412.76 110.83C412.16 110.83 411.7 110.95 411.38 111.19C411.06 111.41 410.9 111.72 410.9 112.12C410.9 112.6 411.15 112.96 411.65 113.2C412.17 113.44 412.97 113.68 414.05 113.92C415.29 114.24 416.3 114.56 417.08 114.88C417.86 115.18 418.54 115.68 419.12 116.38C419.72 117.06 420.03 117.98 420.05 119.14C420.05 120.12 419.77 121 419.21 121.78C418.67 122.54 417.88 123.14 416.84 123.58C415.82 124.02 414.63 124.24 413.27 124.24Z" fill="#0868B2"/>
<path d="M18.248 155.32C20.024 155.32 21.576 155.664 22.904 156.352C24.248 157.024 25.28 158 26 159.28C26.736 160.544 27.104 162.024 27.104 163.72C27.104 165.416 26.736 166.888 26 168.136C25.28 169.384 24.248 170.344 22.904 171.016C21.576 171.672 20.024 172 18.248 172H12.8V155.32H18.248ZM18.248 169.768C20.2 169.768 21.696 169.24 22.736 168.184C23.776 167.128 24.296 165.64 24.296 163.72C24.296 161.784 23.776 160.272 22.736 159.184C21.696 158.096 20.2 157.552 18.248 157.552H15.536V169.768H18.248ZM38.4796 172L34.6396 165.328H32.5516V172H29.8156V155.32H35.5756C36.8556 155.32 37.9356 155.544 38.8156 155.992C39.7116 156.44 40.3756 157.04 40.8076 157.792C41.2556 158.544 41.4796 159.384 41.4796 160.312C41.4796 161.4 41.1596 162.392 40.5196 163.288C39.8956 164.168 38.9276 164.768 37.6156 165.088L41.7436 172H38.4796ZM32.5516 163.144H35.5756C36.5996 163.144 37.3676 162.888 37.8796 162.376C38.4076 161.864 38.6716 161.176 38.6716 160.312C38.6716 159.448 38.4156 158.776 37.9036 158.296C37.3916 157.8 36.6156 157.552 35.5756 157.552H32.5516V163.144ZM47.7157 155.32V172H44.9797V155.32H47.7157ZM65.6838 155.32L59.4198 172H56.2518L49.9638 155.32H52.8918L57.8358 169.192L62.8038 155.32H65.6838ZM70.7079 155.32V172H67.9719V155.32H70.7079ZM88.004 172H85.268L77.036 159.544V172H74.3V155.296H77.036L85.268 167.728V155.296H88.004V172ZM103.669 160.12C103.237 159.288 102.637 158.664 101.869 158.248C101.101 157.816 100.213 157.6 99.2049 157.6C98.1009 157.6 97.1169 157.848 96.2529 158.344C95.3889 158.84 94.7089 159.544 94.2129 160.456C93.7329 161.368 93.4929 162.424 93.4929 163.624C93.4929 164.824 93.7329 165.888 94.2129 166.816C94.7089 167.728 95.3889 168.432 96.2529 168.928C97.1169 169.424 98.1009 169.672 99.2049 169.672C100.693 169.672 101.901 169.256 102.829 168.424C103.757 167.592 104.325 166.464 104.533 165.04H98.2689V162.856H107.461V164.992C107.285 166.288 106.821 167.48 106.069 168.568C105.333 169.656 104.365 170.528 103.165 171.184C101.981 171.824 100.661 172.144 99.2049 172.144C97.6369 172.144 96.2049 171.784 94.9089 171.064C93.6129 170.328 92.5809 169.312 91.8129 168.016C91.0609 166.72 90.6849 165.256 90.6849 163.624C90.6849 161.992 91.0609 160.528 91.8129 159.232C92.5809 157.936 93.6129 156.928 94.9089 156.208C96.2209 155.472 97.6529 155.104 99.2049 155.104C100.981 155.104 102.557 155.544 103.933 156.424C105.325 157.288 106.333 158.52 106.957 160.12H103.669ZM119.13 157.528V162.424H124.89V164.656H119.13V169.768H125.61V172H116.394V155.296H125.61V157.528H119.13ZM134.428 155.32C136.204 155.32 137.756 155.664 139.084 156.352C140.428 157.024 141.46 158 142.18 159.28C142.916 160.544 143.284 162.024 143.284 163.72C143.284 165.416 142.916 166.888 142.18 168.136C141.46 169.384 140.428 170.344 139.084 171.016C137.756 171.672 136.204 172 134.428 172H128.98V155.32H134.428ZM134.428 169.768C136.38 169.768 137.876 169.24 138.916 168.184C139.956 167.128 140.476 165.64 140.476 163.72C140.476 161.784 139.956 160.272 138.916 159.184C137.876 158.096 136.38 157.552 134.428 157.552H131.716V169.768H134.428ZM148.707 155.32V165.952C148.707 167.216 149.035 168.168 149.691 168.808C150.363 169.448 151.291 169.768 152.475 169.768C153.675 169.768 154.603 169.448 155.259 168.808C155.931 168.168 156.267 167.216 156.267 165.952V155.32H159.003V165.904C159.003 167.264 158.707 168.416 158.115 169.36C157.523 170.304 156.731 171.008 155.739 171.472C154.747 171.936 153.651 172.168 152.451 172.168C151.251 172.168 150.155 171.936 149.163 171.472C148.187 171.008 147.411 170.304 146.835 169.36C146.259 168.416 145.971 167.264 145.971 165.904V155.32H148.707ZM161.654 163.624C161.654 161.992 162.03 160.528 162.782 159.232C163.55 157.936 164.582 156.928 165.878 156.208C167.19 155.472 168.622 155.104 170.174 155.104C171.95 155.104 173.526 155.544 174.902 156.424C176.294 157.288 177.302 158.52 177.926 160.12H174.638C174.206 159.24 173.606 158.584 172.838 158.152C172.07 157.72 171.182 157.504 170.174 157.504C169.07 157.504 168.086 157.752 167.222 158.248C166.358 158.744 165.678 159.456 165.182 160.384C164.702 161.312 164.462 162.392 164.462 163.624C164.462 164.856 164.702 165.936 165.182 166.864C165.678 167.792 166.358 168.512 167.222 169.024C168.086 169.52 169.07 169.768 170.174 169.768C171.182 169.768 172.07 169.552 172.838 169.12C173.606 168.688 174.206 168.032 174.638 167.152H177.926C177.302 168.752 176.294 169.984 174.902 170.848C173.526 171.712 171.95 172.144 170.174 172.144C168.606 172.144 167.174 171.784 165.878 171.064C164.582 170.328 163.55 169.312 162.782 168.016C162.03 166.72 161.654 165.256 161.654 163.624ZM191.184 168.592H184.2L183 172H180.144L186.12 155.296H189.288L195.264 172H192.384L191.184 168.592ZM190.416 166.36L187.704 158.608L184.968 166.36H190.416ZM208.639 155.32V157.552H204.199V172H201.463V157.552H196.999V155.32H208.639ZM214.145 155.32V172H211.409V155.32H214.145ZM225.346 172.168C223.794 172.168 222.362 171.808 221.05 171.088C219.754 170.352 218.722 169.336 217.954 168.04C217.202 166.728 216.826 165.256 216.826 163.624C216.826 161.992 217.202 160.528 217.954 159.232C218.722 157.936 219.754 156.928 221.05 156.208C222.362 155.472 223.794 155.104 225.346 155.104C226.914 155.104 228.346 155.472 229.642 156.208C230.954 156.928 231.986 157.936 232.738 159.232C233.49 160.528 233.866 161.992 233.866 163.624C233.866 165.256 233.49 166.728 232.738 168.04C231.986 169.336 230.954 170.352 229.642 171.088C228.346 171.808 226.914 172.168 225.346 172.168ZM225.346 169.792C226.45 169.792 227.434 169.544 228.298 169.048C229.162 168.536 229.834 167.816 230.314 166.888C230.81 165.944 231.058 164.856 231.058 163.624C231.058 162.392 230.81 161.312 230.314 160.384C229.834 159.456 229.162 158.744 228.298 158.248C227.434 157.752 226.45 157.504 225.346 157.504C224.242 157.504 223.258 157.752 222.394 158.248C221.53 158.744 220.85 159.456 220.354 160.384C219.874 161.312 219.634 162.392 219.634 163.624C219.634 164.856 219.874 165.944 220.354 166.888C220.85 167.816 221.53 168.536 222.394 169.048C223.258 169.544 224.242 169.792 225.346 169.792ZM250.262 172H247.526L239.294 159.544V172H236.558V155.296H239.294L247.526 167.728V155.296H250.262V172Z" fill="#F16B21"/>
<path d="M2 141L262 141" stroke="url(#paint0_linear_127_2)" stroke-width="3" stroke-linecap="round"/>
<defs>
<linearGradient id="paint0_linear_127_2" x1="262" y1="140.5" x2="2" y2="140.5" gradientUnits="userSpaceOnUse">
<stop stop-color="#F8DF84"/>
<stop offset="0.314247" stop-color="#E86F7B"/>
<stop offset="0.666205" stop-color="#A5DCA5"/>
<stop offset="1" stop-color="#5AA2C9"/>
</linearGradient>
</defs>
</svg>
