<svg width="264" height="182" viewBox="0 0 264 182" fill="none" xmlns="http://www.w3.org/2000/svg">
<path d="M19 86.4637V87.408C19 88.5242 19.8306 89.4301 20.8538 89.4301H29.6934C31.0987 94.95 35.7392 99 41.2472 99C46.7553 99 51.3955 94.95 52.801 89.4301H117.941C119.346 94.95 123.986 99 129.494 99C135.002 99 139.643 94.95 141.048 89.4301H149.146C150.169 89.4301 151 88.5242 151 87.408V86.4637C151 85.3476 150.169 84.4418 149.146 84.4418H149.129V72.5506C149.129 71.9885 149.057 71.4325 148.916 70.8985L147.75 66.5108C147.272 64.7153 146.056 63.3606 144.55 62.9461L138.08 61.1669C136.191 60.6471 134.398 59.7008 132.792 58.3765L122.848 50.1794C120.668 48.3819 118.15 47.29 115.53 47.0009C109.433 46.3336 103.319 46 97.2044 46C89.987 46 82.7697 46.4651 75.5838 47.3953L70.7023 48.0262C68.5388 48.3074 66.4419 49.1121 64.5343 50.3939L52.2131 58.6862C50.3519 59.9377 48.3088 60.7363 46.1989 61.0337L30.5332 63.2437C26.4231 63.8241 23.1249 67.6576 22.4445 72.6459L22.4352 72.7146L21.2356 74.4374C20.5552 75.414 20.1826 76.6534 20.1826 77.9355V82.8873C20.1826 83.4536 20.253 83.9973 20.3846 84.509C19.5896 84.7371 19 85.5235 19 86.4637ZM142.116 69.3781H144.691C144.926 69.3781 145.147 69.5055 145.279 69.718L145.594 70.2234C146.278 71.3193 146.643 72.6153 146.643 73.9398V74.6677C146.643 75.0964 146.324 75.4442 145.931 75.4442H143.703C143.408 75.4442 143.143 75.246 143.039 74.9468L141.452 70.4317C141.272 69.924 141.617 69.3781 142.116 69.3781ZM84.5829 73.5738H79.9482C79.0787 73.5738 78.3723 72.8034 78.3723 71.8551C78.3723 70.9068 79.0787 70.1364 79.9482 70.1364H84.5829C85.4524 70.1364 86.1587 70.9068 86.1587 71.8551C86.1587 72.8034 85.4524 73.5738 84.5829 73.5738ZM119.313 73.5738H114.678C113.808 73.5738 113.102 72.8034 113.102 71.8551C113.102 70.9068 113.808 70.1364 114.678 70.1364H119.313C120.184 70.1364 120.888 70.9068 120.888 71.8551C120.888 72.8034 120.184 73.5738 119.313 73.5738ZM122.331 84.1182C122.516 83.2407 122.833 82.4197 123.26 81.6777C123.855 81.9465 124.556 81.8516 125.076 81.3884C125.123 81.346 125.169 81.3014 125.212 81.255C125.256 81.2065 125.297 81.1558 125.334 81.1052C125.759 80.5392 125.847 79.7748 125.601 79.1258C126.281 78.6607 127.034 78.315 127.839 78.1128C128.108 78.8203 128.747 79.3197 129.494 79.3197C130.241 79.3197 130.881 78.8203 131.15 78.1128C131.954 78.315 132.707 78.6607 133.388 79.1258C133.121 79.8335 133.248 80.6786 133.777 81.255C134.305 81.8292 135.08 81.9707 135.729 81.6775C136.156 82.4195 136.472 83.2405 136.658 84.118C136.009 84.4112 135.551 85.1088 135.551 85.9237C135.551 86.7407 136.009 87.4382 136.66 87.7314C136.533 88.3259 136.348 88.894 136.109 89.4299C135.994 89.6848 135.864 89.9314 135.727 90.1699C135.078 89.8787 134.303 90.0202 133.777 90.5946C133.248 91.1708 133.119 92.0161 133.387 92.7238C132.707 93.1889 131.954 93.5346 131.15 93.7368C130.881 93.0293 130.241 92.5299 129.494 92.5299C128.747 92.5299 128.107 93.0293 127.838 93.7368C127.034 93.5346 126.281 93.1889 125.601 92.7238C125.87 92.0161 125.74 91.171 125.211 90.5946C124.685 90.0202 123.912 89.8789 123.263 90.1699C123.126 89.9314 122.996 89.6846 122.881 89.4299C122.642 88.894 122.455 88.3259 122.329 87.7314C122.979 87.4382 123.437 86.7407 123.437 85.9237C123.438 85.109 122.98 84.4114 122.331 84.1182ZM91.9931 63.2716L94.064 52.9171C94.255 51.9607 95.0466 51.2915 95.9421 51.3258L113.54 52.0296C114.112 52.0516 114.643 52.3632 114.978 52.8705L121.25 62.4063C122.268 63.9552 121.254 66.1085 119.507 66.1085H94.0898C92.7215 66.1085 91.7019 64.7295 91.9931 63.2716ZM54.6474 62.9867L66.9685 54.6965C68.307 53.7949 69.7476 53.2407 71.2494 53.0466L76.1289 52.4135C80.3893 51.8617 84.6941 51.4815 88.9971 51.265C89.6218 51.2347 90.0891 51.8798 89.924 52.5348L87.4528 62.2869C86.88 64.5453 84.9945 66.1083 82.8457 66.1083H58.7891C57.1743 66.1083 55.6651 65.2248 54.7735 63.7546L54.4045 63.1461C54.4861 63.0936 54.5676 63.0412 54.6474 62.9867ZM34.0836 84.1182C34.13 83.8997 34.1838 83.6835 34.2467 83.4712C34.3728 83.0465 34.5285 82.6382 34.714 82.2481C34.8067 82.0539 34.9067 81.8639 35.0124 81.6779C35.6075 81.9467 36.3083 81.8518 36.8292 81.3886C36.8756 81.3462 36.9219 81.3016 36.9647 81.2552C37.0091 81.2067 37.05 81.156 37.087 81.1054C37.5111 80.54 37.6002 79.7767 37.3547 79.1281C37.3692 79.1183 37.3829 79.1075 37.3976 79.0977C37.4375 79.0709 37.4777 79.0453 37.518 79.0192C37.6359 78.9435 37.7548 78.8688 37.8769 78.8003C38.011 78.7246 38.1475 78.6532 38.2862 78.5868C38.2866 78.5866 38.2869 78.5864 38.2873 78.5862C38.2915 78.5841 38.2957 78.5824 38.2999 78.5804C38.4342 78.5161 38.5707 78.4557 38.709 78.4002C38.7099 78.3997 38.7109 78.3993 38.7119 78.3991C38.7136 78.3985 38.7153 78.3979 38.717 78.3972C38.8576 78.3408 39.0002 78.2888 39.1446 78.242C39.1455 78.2416 39.1465 78.2414 39.1474 78.2412C39.2932 78.1937 39.4409 78.1511 39.5901 78.1134C39.5905 78.1134 39.5911 78.1132 39.5914 78.1132C39.8603 78.8207 40.4998 79.3201 41.247 79.3201C41.9942 79.3201 42.6338 78.8207 42.9026 78.1132H42.9028C42.9034 78.1132 42.9037 78.1134 42.9041 78.1134C43.0535 78.1513 43.201 78.1937 43.3468 78.2412C43.3477 78.2414 43.3487 78.2418 43.3497 78.242C43.4941 78.2888 43.6366 78.3408 43.7772 78.3972C43.779 78.3979 43.7807 78.3985 43.7824 78.3991C43.7833 78.3995 43.7843 78.4 43.7853 78.4002C43.9236 78.4559 44.0598 78.5163 44.1943 78.5804C44.1985 78.5824 44.2027 78.5841 44.2069 78.5862C44.2073 78.5862 44.2077 78.5866 44.2081 78.5868C44.3468 78.6534 44.4832 78.7248 44.6173 78.8003C44.74 78.8692 44.8593 78.9441 44.9778 79.0203C45.0174 79.0459 45.0573 79.0713 45.0966 79.0977C45.1001 79.1 45.1033 79.1025 45.1067 79.1048C45.1178 79.1123 45.1285 79.1206 45.1396 79.1281C44.8738 79.8354 45.0018 80.6794 45.5296 81.2552C46.0579 81.8294 46.8329 81.9709 47.4816 81.6777C47.5873 81.8637 47.6875 82.0537 47.7802 82.2479C47.9657 82.638 48.1214 83.0465 48.2473 83.471C48.3103 83.6833 48.3641 83.8995 48.4105 84.118C47.7615 84.4112 47.3036 85.1088 47.3036 85.9237C47.3036 86.7407 47.7615 87.4382 48.4124 87.7314C48.3809 87.885 48.3439 88.0367 48.303 88.1863C48.266 88.3259 48.2233 88.4654 48.1788 88.6029C48.1565 88.6757 48.1306 88.7484 48.1065 88.8214C48.0565 88.9587 48.0044 89.0942 47.9489 89.2278C47.9211 89.2965 47.8915 89.3633 47.8617 89.4301C47.7469 89.685 47.6169 89.9316 47.4797 90.1701C46.8308 89.879 46.056 90.0204 45.5294 90.5948C45.001 91.171 44.8713 92.0163 45.1401 92.724C44.4597 93.1891 43.707 93.5348 42.9024 93.7371C42.6336 93.0295 41.994 92.5301 41.2468 92.5301C40.4997 92.5301 39.8601 93.0295 39.5913 93.7371C38.7866 93.5348 38.0339 93.1891 37.3535 92.724C37.6224 92.0163 37.4926 91.1712 36.9643 90.5948C36.4377 90.0204 35.6648 89.8792 35.0158 90.1701C34.8787 89.9316 34.7489 89.6848 34.6341 89.4301C34.6043 89.3633 34.5747 89.2965 34.5469 89.2278C34.4911 89.0942 34.4394 88.9587 34.3893 88.8214C34.2631 88.4695 34.1612 88.1055 34.0815 87.7314C34.7323 87.4382 35.1902 86.7407 35.1902 85.9237C35.1904 85.109 34.7325 84.4114 34.0836 84.1182ZM26.2712 71.4606C26.7959 69.9927 27.6284 68.2255 28.7927 67.3498C28.9781 67.2104 29.2006 67.1417 29.4267 67.1417H32.0018C32.8472 67.1417 33.3996 68.1063 33.0288 68.9353L32.0073 71.22C31.8701 71.5294 31.6217 71.7621 31.3214 71.863L27.6765 73.1106C26.7587 73.4239 25.9207 72.4392 26.2712 71.4606Z" fill="#F16B21"/>
<path d="M21.7 131.35C18.4 131.35 15.3667 130.583 12.6 129.05C9.86667 127.517 7.68333 125.383 6.05 122.65C4.45 119.883 3.65 116.783 3.65 113.35C3.65 109.917 4.45 106.833 6.05 104.1C7.68333 101.367 9.86667 99.2333 12.6 97.7C15.3667 96.1667 18.4 95.4 21.7 95.4C25 95.4 28.0167 96.1667 30.75 97.7C33.5167 99.2333 35.6833 101.367 37.25 104.1C38.85 106.833 39.65 109.917 39.65 113.35C39.65 116.783 38.85 119.883 37.25 122.65C35.65 125.383 33.4833 127.517 30.75 129.05C28.0167 130.583 25 131.35 21.7 131.35ZM21.7 123.55C24.5 123.55 26.7333 122.617 28.4 120.75C30.1 118.883 30.95 116.417 30.95 113.35C30.95 110.25 30.1 107.783 28.4 105.95C26.7333 104.083 24.5 103.15 21.7 103.15C18.8667 103.15 16.6 104.067 14.9 105.9C13.2333 107.733 12.4 110.217 12.4 113.35C12.4 116.45 13.2333 118.933 14.9 120.8C16.6 122.633 18.8667 123.55 21.7 123.55ZM83.3066 131H74.7566L60.4566 109.35V131H51.9066V95.9H60.4566L74.7566 117.65V95.9H83.3066V131ZM114.904 131L107.604 117.75H105.554V131H97.0043V95.9H111.354C114.121 95.9 116.471 96.3833 118.404 97.35C120.371 98.3167 121.838 99.65 122.804 101.35C123.771 103.017 124.254 104.883 124.254 106.95C124.254 109.283 123.588 111.367 122.254 113.2C120.954 115.033 119.021 116.333 116.454 117.1L124.554 131H114.904ZM105.554 111.7H110.854C112.421 111.7 113.588 111.317 114.354 110.55C115.154 109.783 115.554 108.7 115.554 107.3C115.554 105.967 115.154 104.917 114.354 104.15C113.588 103.383 112.421 103 110.854 103H105.554V111.7ZM153.721 131.35C150.421 131.35 147.388 130.583 144.621 129.05C141.888 127.517 139.705 125.383 138.071 122.65C136.471 119.883 135.671 116.783 135.671 113.35C135.671 109.917 136.471 106.833 138.071 104.1C139.705 101.367 141.888 99.2333 144.621 97.7C147.388 96.1667 150.421 95.4 153.721 95.4C157.021 95.4 160.038 96.1667 162.771 97.7C165.538 99.2333 167.705 101.367 169.271 104.1C170.871 106.833 171.671 109.917 171.671 113.35C171.671 116.783 170.871 119.883 169.271 122.65C167.671 125.383 165.505 127.517 162.771 129.05C160.038 130.583 157.021 131.35 153.721 131.35ZM153.721 123.55C156.521 123.55 158.755 122.617 160.421 120.75C162.121 118.883 162.971 116.417 162.971 113.35C162.971 110.25 162.121 107.783 160.421 105.95C158.755 104.083 156.521 103.15 153.721 103.15C150.888 103.15 148.621 104.067 146.921 105.9C145.255 107.733 144.421 110.217 144.421 113.35C144.421 116.45 145.255 118.933 146.921 120.8C148.621 122.633 150.888 123.55 153.721 123.55ZM205.778 124.8H192.678L190.578 131H181.628L194.328 95.9H204.228L216.928 131H207.878L205.778 124.8ZM203.578 118.2L199.228 105.35L194.928 118.2H203.578ZM241.443 95.9C245.143 95.9 248.377 96.6333 251.143 98.1C253.91 99.5667 256.043 101.633 257.543 104.3C259.077 106.933 259.843 109.983 259.843 113.45C259.843 116.883 259.077 119.933 257.543 122.6C256.043 125.267 253.893 127.333 251.093 128.8C248.327 130.267 245.11 131 241.443 131H228.293V95.9H241.443ZM240.893 123.6C244.127 123.6 246.643 122.717 248.443 120.95C250.243 119.183 251.143 116.683 251.143 113.45C251.143 110.217 250.243 107.7 248.443 105.9C246.643 104.1 244.127 103.2 240.893 103.2H236.843V123.6H240.893Z" fill="#0868B2"/>
<path d="M18.248 155.32C20.024 155.32 21.576 155.664 22.904 156.352C24.248 157.024 25.28 158 26 159.28C26.736 160.544 27.104 162.024 27.104 163.72C27.104 165.416 26.736 166.888 26 168.136C25.28 169.384 24.248 170.344 22.904 171.016C21.576 171.672 20.024 172 18.248 172H12.8V155.32H18.248ZM18.248 169.768C20.2 169.768 21.696 169.24 22.736 168.184C23.776 167.128 24.296 165.64 24.296 163.72C24.296 161.784 23.776 160.272 22.736 159.184C21.696 158.096 20.2 157.552 18.248 157.552H15.536V169.768H18.248ZM38.4796 172L34.6396 165.328H32.5516V172H29.8156V155.32H35.5756C36.8556 155.32 37.9356 155.544 38.8156 155.992C39.7116 156.44 40.3756 157.04 40.8076 157.792C41.2556 158.544 41.4796 159.384 41.4796 160.312C41.4796 161.4 41.1596 162.392 40.5196 163.288C39.8956 164.168 38.9276 164.768 37.6156 165.088L41.7436 172H38.4796ZM32.5516 163.144H35.5756C36.5996 163.144 37.3676 162.888 37.8796 162.376C38.4076 161.864 38.6716 161.176 38.6716 160.312C38.6716 159.448 38.4156 158.776 37.9036 158.296C37.3916 157.8 36.6156 157.552 35.5756 157.552H32.5516V163.144ZM47.7157 155.32V172H44.9797V155.32H47.7157ZM65.6838 155.32L59.4198 172H56.2518L49.9638 155.32H52.8918L57.8358 169.192L62.8038 155.32H65.6838ZM70.7079 155.32V172H67.9719V155.32H70.7079ZM88.004 172H85.268L77.036 159.544V172H74.3V155.296H77.036L85.268 167.728V155.296H88.004V172ZM103.669 160.12C103.237 159.288 102.637 158.664 101.869 158.248C101.101 157.816 100.213 157.6 99.2049 157.6C98.1009 157.6 97.1169 157.848 96.2529 158.344C95.3889 158.84 94.7089 159.544 94.2129 160.456C93.7329 161.368 93.4929 162.424 93.4929 163.624C93.4929 164.824 93.7329 165.888 94.2129 166.816C94.7089 167.728 95.3889 168.432 96.2529 168.928C97.1169 169.424 98.1009 169.672 99.2049 169.672C100.693 169.672 101.901 169.256 102.829 168.424C103.757 167.592 104.325 166.464 104.533 165.04H98.2689V162.856H107.461V164.992C107.285 166.288 106.821 167.48 106.069 168.568C105.333 169.656 104.365 170.528 103.165 171.184C101.981 171.824 100.661 172.144 99.2049 172.144C97.6369 172.144 96.2049 171.784 94.9089 171.064C93.6129 170.328 92.5809 169.312 91.8129 168.016C91.0609 166.72 90.6849 165.256 90.6849 163.624C90.6849 161.992 91.0609 160.528 91.8129 159.232C92.5809 157.936 93.6129 156.928 94.9089 156.208C96.2209 155.472 97.6529 155.104 99.2049 155.104C100.981 155.104 102.557 155.544 103.933 156.424C105.325 157.288 106.333 158.52 106.957 160.12H103.669ZM119.13 157.528V162.424H124.89V164.656H119.13V169.768H125.61V172H116.394V155.296H125.61V157.528H119.13ZM134.428 155.32C136.204 155.32 137.756 155.664 139.084 156.352C140.428 157.024 141.46 158 142.18 159.28C142.916 160.544 143.284 162.024 143.284 163.72C143.284 165.416 142.916 166.888 142.18 168.136C141.46 169.384 140.428 170.344 139.084 171.016C137.756 171.672 136.204 172 134.428 172H128.98V155.32H134.428ZM134.428 169.768C136.38 169.768 137.876 169.24 138.916 168.184C139.956 167.128 140.476 165.64 140.476 163.72C140.476 161.784 139.956 160.272 138.916 159.184C137.876 158.096 136.38 157.552 134.428 157.552H131.716V169.768H134.428ZM148.707 155.32V165.952C148.707 167.216 149.035 168.168 149.691 168.808C150.363 169.448 151.291 169.768 152.475 169.768C153.675 169.768 154.603 169.448 155.259 168.808C155.931 168.168 156.267 167.216 156.267 165.952V155.32H159.003V165.904C159.003 167.264 158.707 168.416 158.115 169.36C157.523 170.304 156.731 171.008 155.739 171.472C154.747 171.936 153.651 172.168 152.451 172.168C151.251 172.168 150.155 171.936 149.163 171.472C148.187 171.008 147.411 170.304 146.835 169.36C146.259 168.416 145.971 167.264 145.971 165.904V155.32H148.707ZM161.654 163.624C161.654 161.992 162.03 160.528 162.782 159.232C163.55 157.936 164.582 156.928 165.878 156.208C167.19 155.472 168.622 155.104 170.174 155.104C171.95 155.104 173.526 155.544 174.902 156.424C176.294 157.288 177.302 158.52 177.926 160.12H174.638C174.206 159.24 173.606 158.584 172.838 158.152C172.07 157.72 171.182 157.504 170.174 157.504C169.07 157.504 168.086 157.752 167.222 158.248C166.358 158.744 165.678 159.456 165.182 160.384C164.702 161.312 164.462 162.392 164.462 163.624C164.462 164.856 164.702 165.936 165.182 166.864C165.678 167.792 166.358 168.512 167.222 169.024C168.086 169.52 169.07 169.768 170.174 169.768C171.182 169.768 172.07 169.552 172.838 169.12C173.606 168.688 174.206 168.032 174.638 167.152H177.926C177.302 168.752 176.294 169.984 174.902 170.848C173.526 171.712 171.95 172.144 170.174 172.144C168.606 172.144 167.174 171.784 165.878 171.064C164.582 170.328 163.55 169.312 162.782 168.016C162.03 166.72 161.654 165.256 161.654 163.624ZM191.184 168.592H184.2L183 172H180.144L186.12 155.296H189.288L195.264 172H192.384L191.184 168.592ZM190.416 166.36L187.704 158.608L184.968 166.36H190.416ZM208.639 155.32V157.552H204.199V172H201.463V157.552H196.999V155.32H208.639ZM214.145 155.32V172H211.409V155.32H214.145ZM225.346 172.168C223.794 172.168 222.362 171.808 221.05 171.088C219.754 170.352 218.722 169.336 217.954 168.04C217.202 166.728 216.826 165.256 216.826 163.624C216.826 161.992 217.202 160.528 217.954 159.232C218.722 157.936 219.754 156.928 221.05 156.208C222.362 155.472 223.794 155.104 225.346 155.104C226.914 155.104 228.346 155.472 229.642 156.208C230.954 156.928 231.986 157.936 232.738 159.232C233.49 160.528 233.866 161.992 233.866 163.624C233.866 165.256 233.49 166.728 232.738 168.04C231.986 169.336 230.954 170.352 229.642 171.088C228.346 171.808 226.914 172.168 225.346 172.168ZM225.346 169.792C226.45 169.792 227.434 169.544 228.298 169.048C229.162 168.536 229.834 167.816 230.314 166.888C230.81 165.944 231.058 164.856 231.058 163.624C231.058 162.392 230.81 161.312 230.314 160.384C229.834 159.456 229.162 158.744 228.298 158.248C227.434 157.752 226.45 157.504 225.346 157.504C224.242 157.504 223.258 157.752 222.394 158.248C221.53 158.744 220.85 159.456 220.354 160.384C219.874 161.312 219.634 162.392 219.634 163.624C219.634 164.856 219.874 165.944 220.354 166.888C220.85 167.816 221.53 168.536 222.394 169.048C223.258 169.544 224.242 169.792 225.346 169.792ZM250.262 172H247.526L239.294 159.544V172H236.558V155.296H239.294L247.526 167.728V155.296H250.262V172Z" fill="#F16B21"/>
<path d="M2 141L262 141" stroke="url(#paint0_linear_127_2)" stroke-width="3" stroke-linecap="round"/>
<defs>
<linearGradient id="paint0_linear_127_2" x1="262" y1="140.5" x2="2" y2="140.5" gradientUnits="userSpaceOnUse">
<stop stop-color="#F8DF84"/>
<stop offset="0.314247" stop-color="#E86F7B"/>
<stop offset="0.666205" stop-color="#A5DCA5"/>
<stop offset="1" stop-color="#5AA2C9"/>
</linearGradient>
</defs>
</svg>
